<?xml version="1.0" encoding="utf-8"?>
<!-- Generator: Adobe Illustrator 22.0.1, SVG Export Plug-In . SVG Version: 6.00 Build 0)  -->
<svg version="1.1" xmlns="http://www.w3.org/2000/svg" xmlns:xlink="http://www.w3.org/1999/xlink" x="0px" y="0px"
	 viewBox="0 0 44 44" style="enable-background:new 0 0 44 44;" xml:space="preserve">
<style type="text/css">
	.st0{fill:#80DEEA;}
	.st1{fill:#027CB6;}
	.st2{opacity:0.1;fill:#FFFFFF;}
	.st3{fill:#FFFFFF;}
	.st4{fill:#005580;}
	.st5{opacity:0.2;fill-rule:evenodd;clip-rule:evenodd;fill:#FF5252;}
	.st6{fill-rule:evenodd;clip-rule:evenodd;fill:#FF5252;}
	.st7{opacity:0.2;fill-rule:evenodd;clip-rule:evenodd;fill:#FFFFFF;}
	.st8{fill-rule:evenodd;clip-rule:evenodd;fill:#FFFFFF;}
	.st9{fill:#CFD8DC;}
	.st10{fill-rule:evenodd;clip-rule:evenodd;fill:#ECEFF1;}
	.st11{fill-rule:evenodd;clip-rule:evenodd;fill:#CFD8DC;}
	.st12{fill:#ECEFF1;}
	.st13{fill-rule:evenodd;clip-rule:evenodd;fill:#D12E2B;}
	.st14{fill-rule:evenodd;clip-rule:evenodd;fill:#0787C8;}
	.st15{fill:#00AACD;}
	.st16{fill:#FF5252;}
	.st17{fill:#BB3C3C;}
	.st18{fill-rule:evenodd;clip-rule:evenodd;fill:#027CB6;}
	.st19{fill-rule:evenodd;clip-rule:evenodd;fill:#D30F14;}
	.st20{fill-rule:evenodd;clip-rule:evenodd;fill:#A5D6A7;}
	.st21{fill-rule:evenodd;clip-rule:evenodd;fill:#FFCC80;}
	.st22{fill-rule:evenodd;clip-rule:evenodd;fill:#EF9A9A;}
	.st23{display:none;}
	.st24{display:inline;opacity:0.15;fill:#991313;}
	.st25{display:inline;opacity:0.1;fill:#FF0000;}
</style>
<g id="mapa">
</g>
<g id="zonas">
</g>
<g id="maquinas2">
</g>
<g id="maquinas1">
	<g>
		<circle class="st4" cx="22" cy="22" r="22"/>
		<path class="st2" d="M44,22c0,1.3-0.1,2.7-0.4,3.9c-0.4,2.3-1.2,4.4-2.2,6.4C23.8,24.9,15.3,11.8,11.3,2.8
			c1.6-0.9,3.4-1.6,5.3-2.1C18.3,0.2,20.1,0,22,0C34.2,0,44,9.8,44,22z"/>
		<g>
			<path class="st3" d="M22,42C11,42,2,33,2,22S11,2,22,2s20,9,20,20S33,42,22,42z M22,4C12.1,4,4,12.1,4,22s8.1,18,18,18
				s18-8.1,18-18S31.9,4,22,4z"/>
		</g>
		<g>
			<path class="st3" d="M14,10.3h8.6c5.1,0,9.2,1.9,9.2,7.6c0,5.5-4.2,8-9.2,8h-3.2v8H14V10.3z M22.2,21.6c2.9,0,4.3-1.3,4.3-3.7
				c0-2.4-1.5-3.3-4.3-3.3h-2.9v7.1H22.2z"/>
		</g>
	</g>
</g>
<g id="localizaçao">
</g>
<g id="menu">
</g>
<g id="guias" class="st23">
</g>
</svg>
